<?xml version="1.0" encoding="utf-8"?>
<!-- Generator: Adobe Illustrator 18.1.1, SVG Export Plug-In . SVG Version: 6.00 Build 0)  -->
<svg version="1.1" id="Layer_1" xmlns="http://www.w3.org/2000/svg" xmlns:xlink="http://www.w3.org/1999/xlink" x="0px" y="0px"
	 viewBox="-167 354 276 85" enable-background="new -167 354 276 85" xml:space="preserve">
<g>
	<g id="layer2" transform="translate(0,-802.36218)">
		<g id="g2448_2_" transform="matrix(7.154919,0,0,7.154919,-5968.5265,209.30681)">
			<g id="g18327_2_" transform="translate(757.24773,73.770199)">
				<path id="path5347_2_" fill="none" stroke="#FFFFFF" stroke-width="0.1" d="M63.5,64.7c-1.1,2.4-3.5,4.4-5.5,4.4
					c-1.9,0-2.6-1.9-1.5-4.3c1.1-2.4,3.5-4.4,5.5-4.4C64,60.3,64.6,62.3,63.5,64.7z"/>
				<path id="path5358_2_" fill="none" stroke="#FFFFFF" stroke-width="0.1" d="M58.4,61.7c2.6-0.3,5.6,0.9,6.6,2.5
					c1,1.7-0.4,3.2-3,3.5c-2.6,0.3-5.6-0.9-6.6-2.5C54.4,63.5,55.7,62,58.4,61.7z"/>
				<path id="path5360_2_" fill="none" stroke="#FFFFFF" stroke-width="0.1" d="M58.6,67.6c-1.5-2.2-2.1-5.3-1.1-6.9
					c0.9-1.7,2.9-1.3,4.5,0.9c1.5,2.2,2.1,5.3,1.1,6.9C62.2,70.2,60.2,69.8,58.6,67.6z"/>
			</g>
			<g id="flowRoot3149_2_" transform="matrix(2.1579497,0,0,2.1579497,700.54471,-24.030197)">
			</g>
		</g>
	</g>
	<rect x="-22.9" y="373.8" fill="#FFFFFF" width="2.2" height="43.4"/>
	<rect x="-155.3" y="373.6" fill="none" width="258.7" height="47.3"/>
	<g enable-background="new    ">
		<path fill="#FFFFFF" d="M-151.3,383.2c-0.3,0-0.6-0.1-0.8-0.3c-0.2-0.2-0.3-0.5-0.3-0.9c0-0.3,0.1-0.6,0.3-0.8
			c0.2-0.2,0.5-0.3,0.8-0.3c0.3,0,0.6,0.1,0.9,0.3c0.2,0.2,0.3,0.5,0.3,0.8c0,0.4-0.1,0.7-0.3,0.9S-151,383.2-151.3,383.2z
			 M-150.1,407.6c0,0.4-0.1,0.7-0.3,0.9s-0.5,0.3-0.9,0.3c-0.8,0-1.2-0.4-1.2-1.2v-20.4c0-0.3,0.1-0.6,0.3-0.8
			c0.2-0.2,0.5-0.3,0.8-0.3c0.3,0,0.6,0.1,0.9,0.3c0.2,0.2,0.3,0.5,0.3,0.8V407.6z"/>
		<path fill="#FFFFFF" d="M-133.2,400.9c1,0.9,1.5,2,1.5,3.4c0,1.2-0.5,2.3-1.4,3.3c-0.9,0.9-2,1.3-3.3,1.3h-9.1
			c-0.3,0-0.6-0.1-0.8-0.3c-0.2-0.2-0.3-0.5-0.3-0.8s0.1-0.6,0.3-0.8c0.2-0.2,0.5-0.3,0.8-0.3h9.1c0.3,0,0.6-0.1,0.9-0.2
			c0.3-0.1,0.5-0.3,0.8-0.5c0.2-0.2,0.4-0.5,0.5-0.8c0.1-0.3,0.1-0.6,0.1-0.8c0-0.3-0.1-0.7-0.2-0.9c-0.1-0.3-0.3-0.5-0.5-0.8
			l-9.8-8.5c-1-1-1.4-2.1-1.4-3.4c0-1.3,0.5-2.4,1.4-3.3c0.9-0.9,2-1.4,3.3-1.4h7.9c0.3,0,0.6,0.1,0.9,0.3c0.2,0.2,0.3,0.5,0.3,0.8
			c0,0.4-0.1,0.7-0.3,0.9c-0.2,0.2-0.5,0.3-0.9,0.3h-7.9c-0.6,0-1.2,0.2-1.6,0.7c-0.4,0.4-0.7,1-0.7,1.6c0,0.3,0,0.7,0.1,1
			c0.1,0.3,0.3,0.5,0.5,0.7C-142.9,392.3-139.6,395.2-133.2,400.9z"/>
		<path fill="#FFFFFF" d="M-113.6,388.6c0.8,0.8,1.5,1.8,1.9,2.9c0.4,1.1,0.7,2.2,0.7,3.4v5c0,1.2-0.2,2.4-0.7,3.5
			c-0.5,1.1-1.1,2-1.9,2.8c-0.8,0.8-1.8,1.4-2.9,1.9c-1.1,0.5-2.2,0.7-3.4,0.7c-1.2,0-2.4-0.2-3.5-0.7c-1.1-0.5-2-1.1-2.8-1.9
			c-0.8-0.8-1.4-1.8-1.9-2.8c-0.5-1.1-0.7-2.2-0.7-3.5v-5c0-1.2,0.2-2.3,0.7-3.4c0.4-1.1,1.1-2,1.9-2.9c0.8-0.9,1.8-1.5,2.9-2
			c1.1-0.4,2.3-0.7,3.5-0.7c1.2,0,2.4,0.2,3.4,0.7C-115.4,387.1-114.5,387.8-113.6,388.6z M-120,406.5c0.9,0,1.7-0.2,2.5-0.5
			c0.8-0.3,1.5-0.8,2.1-1.4c0.6-0.6,1.1-1.3,1.4-2.1c0.4-0.8,0.5-1.7,0.5-2.6v-5c0-0.8-0.2-1.7-0.5-2.5c-0.3-0.8-0.8-1.5-1.4-2.1
			c-1.3-1.3-2.9-2-4.6-2c-1.8,0-3.3,0.7-4.7,2c-0.6,0.6-1,1.3-1.4,2.1c-0.3,0.8-0.5,1.6-0.5,2.5v5c0,0.9,0.2,1.8,0.5,2.6
			c0.3,0.8,0.8,1.5,1.4,2.1c0.6,0.6,1.3,1.1,2.1,1.4C-121.7,406.4-120.9,406.5-120,406.5z"/>
		<path fill="#FFFFFF" d="M-95.2,406.9c0.2,0.2,0.3,0.5,0.3,0.8s-0.1,0.6-0.3,0.8s-0.5,0.3-0.8,0.3h-2.2c-1.3,0-2.4-0.2-3.5-0.7
			c-1.1-0.5-2-1.1-2.9-1.9c-0.8-0.8-1.5-1.8-1.9-2.8c-0.5-1.1-0.7-2.2-0.7-3.5v-25.1c0-0.3,0.1-0.6,0.4-0.8c0.2-0.2,0.5-0.3,0.9-0.3
			c0.3,0,0.6,0.1,0.8,0.3c0.2,0.2,0.3,0.5,0.3,0.8V386h7.1c0.3,0,0.6,0.1,0.9,0.3c0.2,0.2,0.3,0.5,0.3,0.8c0,0.3-0.1,0.6-0.3,0.8
			c-0.2,0.2-0.5,0.3-0.9,0.3h-7.1v11.6c0,0.9,0.2,1.8,0.5,2.6c0.3,0.8,0.8,1.5,1.4,2.1c0.6,0.6,1.3,1.1,2.1,1.4
			c0.8,0.3,1.6,0.5,2.6,0.5h2.2C-95.7,406.5-95.5,406.6-95.2,406.9z"/>
		<path fill="#FFFFFF" d="M-78.2,388.6c0.8,0.8,1.5,1.8,1.9,2.9c0.4,1.1,0.7,2.2,0.7,3.4v5c0,1.2-0.2,2.4-0.7,3.5
			c-0.5,1.1-1.1,2-1.9,2.8c-0.8,0.8-1.8,1.4-2.9,1.9c-1.1,0.5-2.2,0.7-3.4,0.7c-1.2,0-2.4-0.2-3.5-0.7c-1.1-0.5-2-1.1-2.8-1.9
			c-0.8-0.8-1.4-1.8-1.9-2.8c-0.5-1.1-0.7-2.2-0.7-3.5v-5c0-1.2,0.2-2.3,0.7-3.4c0.4-1.1,1.1-2,1.9-2.9c0.8-0.9,1.8-1.5,2.9-2
			c1.1-0.4,2.3-0.7,3.5-0.7c1.2,0,2.4,0.2,3.4,0.7C-80,387.1-79,387.8-78.2,388.6z M-84.5,406.5c0.9,0,1.7-0.2,2.5-0.5
			c0.8-0.3,1.5-0.8,2.1-1.4c0.6-0.6,1.1-1.3,1.4-2.1c0.4-0.8,0.5-1.7,0.5-2.6v-5c0-0.8-0.2-1.7-0.5-2.5c-0.3-0.8-0.8-1.5-1.4-2.1
			c-1.3-1.3-2.9-2-4.6-2c-1.8,0-3.3,0.7-4.7,2c-0.6,0.6-1,1.3-1.4,2.1c-0.3,0.8-0.5,1.6-0.5,2.5v5c0,0.9,0.2,1.8,0.5,2.6
			c0.3,0.8,0.8,1.5,1.4,2.1c0.6,0.6,1.3,1.1,2.1,1.4C-86.3,406.4-85.4,406.5-84.5,406.5z"/>
		<path fill="#FFFFFF" d="M-62.7,386c1.2,0,2.4,0.2,3.5,0.7c1.1,0.4,2.1,1.1,2.9,2c0.9,0.8,1.6,1.8,2,2.9c0.4,1.1,0.7,2.2,0.7,3.4v5
			c0,1.2-0.2,2.4-0.7,3.5c-0.5,1.1-1.1,2-1.9,2.8c-0.8,0.8-1.8,1.4-2.9,1.9c-1.1,0.5-2.2,0.7-3.5,0.7c-1.3,0-2.5-0.2-3.6-0.7
			c-1.1-0.5-2.1-1.2-2.9-2.1v9.8c0,0.3-0.1,0.6-0.3,0.8c-0.2,0.2-0.5,0.3-0.9,0.3c-0.3,0-0.6-0.1-0.9-0.3c-0.2-0.2-0.3-0.5-0.3-0.8
			v-28.7c0-0.3,0.1-0.6,0.3-0.8c0.2-0.2,0.5-0.3,0.9-0.3c0.3,0,0.6,0.1,0.9,0.3c0.2,0.2,0.3,0.5,0.3,0.8v1.7c0-0.1,0-0.1,0.1-0.1
			c0,0,0.1-0.1,0.1-0.1C-67.3,386.9-65.2,386-62.7,386z M-56.1,394.9c0-0.8-0.2-1.7-0.5-2.5c-0.3-0.8-0.8-1.5-1.4-2.1
			c-1.3-1.3-2.9-2-4.7-2c-1.8,0-3.4,0.7-4.6,2c-0.6,0.6-1.1,1.3-1.4,2.1c-0.3,0.8-0.5,1.6-0.5,2.5v5c0,0.9,0.2,1.8,0.5,2.6
			c0.3,0.8,0.8,1.5,1.4,2.1c0.6,0.6,1.3,1.1,2.1,1.4c0.8,0.3,1.6,0.5,2.5,0.5c0.9,0,1.8-0.2,2.6-0.5c0.8-0.3,1.5-0.8,2.1-1.4
			c0.6-0.6,1.1-1.3,1.4-2.1c0.3-0.8,0.5-1.7,0.5-2.6V394.9z"/>
		<path fill="#FFFFFF" d="M-41.7,386c2.5,0,4.6,0.9,6.3,2.6c0.8,0.8,1.5,1.8,1.9,2.9c0.4,1.1,0.7,2.2,0.7,3.4v2.3
			c0,0.3-0.1,0.6-0.3,0.9s-0.5,0.3-0.9,0.3h-14.3v1.5c0,0.9,0.2,1.8,0.5,2.6c0.3,0.8,0.8,1.5,1.4,2.1c0.6,0.6,1.3,1.1,2.1,1.4
			c0.8,0.3,1.7,0.5,2.6,0.5h5.1c0.3,0,0.6,0.1,0.8,0.3s0.3,0.5,0.3,0.8s-0.1,0.6-0.3,0.8s-0.5,0.3-0.8,0.3h-5.1
			c-1.2,0-2.4-0.2-3.5-0.7c-1.1-0.5-2-1.1-2.9-1.9c-0.8-0.8-1.5-1.8-1.9-2.8c-0.5-1.1-0.7-2.2-0.7-3.5v-5c0-1.2,0.2-2.3,0.7-3.4
			c0.4-1.1,1.1-2,2-2.9c0.8-0.9,1.8-1.5,2.9-2C-44.1,386.3-42.9,386-41.7,386z M-35.2,394.9c0-0.8-0.2-1.7-0.5-2.5
			c-0.3-0.8-0.8-1.5-1.4-2.1c-1.2-1.3-2.8-2-4.6-2c-0.9,0-1.7,0.2-2.5,0.5c-0.8,0.3-1.5,0.8-2.1,1.4c-0.6,0.6-1.1,1.3-1.4,2.1
			c-0.3,0.8-0.5,1.6-0.5,2.5v1.1h13.1V394.9z"/>
	</g>
	<rect x="-14.1" y="374" fill="none" width="161.6" height="47.3"/>
	<g enable-background="new    ">
		<path fill="#FFFFFF" d="M-2.5,386.5c2.5,0,4.6,0.9,6.3,2.6c0.8,0.8,1.5,1.8,1.9,2.9c0.4,1.1,0.7,2.2,0.7,3.4v2.3
			c0,0.3-0.1,0.6-0.3,0.9s-0.5,0.3-0.9,0.3H-9.1v1.5c0,0.9,0.2,1.8,0.5,2.6s0.8,1.5,1.4,2.1c0.6,0.6,1.3,1.1,2.1,1.4
			c0.8,0.3,1.7,0.5,2.6,0.5h5.1c0.3,0,0.6,0.1,0.8,0.3s0.3,0.5,0.3,0.8s-0.1,0.6-0.3,0.8s-0.5,0.3-0.8,0.3h-5.1
			c-1.2,0-2.4-0.2-3.5-0.7c-1.1-0.5-2-1.1-2.9-1.9c-0.8-0.8-1.5-1.8-1.9-2.8c-0.5-1.1-0.7-2.2-0.7-3.5v-5c0-1.2,0.2-2.3,0.7-3.4
			c0.4-1.1,1.1-2,2-2.9c0.8-0.9,1.8-1.5,2.9-2C-4.8,386.7-3.7,386.5-2.5,386.5z M4.1,395.3c0-0.8-0.2-1.7-0.5-2.5
			c-0.3-0.8-0.8-1.5-1.4-2.1c-1.2-1.3-2.8-2-4.6-2c-0.9,0-1.7,0.2-2.5,0.5c-0.8,0.3-1.5,0.8-2.1,1.4c-0.6,0.6-1.1,1.3-1.4,2.1
			c-0.3,0.8-0.5,1.6-0.5,2.5v1.1H4.1V395.3z"/>
		<path fill="#FFFFFF" d="M11.5,374.1c0.3,0,0.5,0.1,0.8,0.3c0.2,0.2,0.4,0.5,0.4,0.8V408c0,0.4-0.1,0.7-0.4,0.9
			c-0.2,0.2-0.5,0.3-0.8,0.3c-0.4,0-0.7-0.1-0.9-0.3s-0.3-0.5-0.3-0.9v-32.8c0-0.3,0.1-0.6,0.3-0.8S11.2,374.1,11.5,374.1z"/>
		<path fill="#FFFFFF" d="M25.8,386.5c2.5,0,4.6,0.9,6.3,2.6c0.8,0.8,1.5,1.8,1.9,2.9c0.4,1.1,0.7,2.2,0.7,3.4v2.3
			c0,0.3-0.1,0.6-0.3,0.9s-0.5,0.3-0.9,0.3H19.2v1.5c0,0.9,0.2,1.8,0.5,2.6c0.3,0.8,0.8,1.5,1.4,2.1c0.6,0.6,1.3,1.1,2.1,1.4
			c0.8,0.3,1.7,0.5,2.6,0.5h5.1c0.3,0,0.6,0.1,0.8,0.3s0.3,0.5,0.3,0.8s-0.1,0.6-0.3,0.8s-0.5,0.3-0.8,0.3h-5.1
			c-1.2,0-2.4-0.2-3.5-0.7s-2-1.1-2.9-1.9c-0.8-0.8-1.5-1.8-1.9-2.8c-0.5-1.1-0.7-2.2-0.7-3.5v-5c0-1.2,0.2-2.3,0.7-3.4
			c0.4-1.1,1.1-2,2-2.9c0.8-0.9,1.8-1.5,2.9-2C23.4,386.7,24.6,386.5,25.8,386.5z M32.3,395.3c0-0.8-0.2-1.7-0.5-2.5
			c-0.3-0.8-0.8-1.5-1.4-2.1c-1.2-1.3-2.8-2-4.6-2c-0.9,0-1.7,0.2-2.5,0.5c-0.8,0.3-1.5,0.8-2.1,1.4c-0.6,0.6-1.1,1.3-1.4,2.1
			c-0.3,0.8-0.5,1.6-0.5,2.5v1.1h13.1V395.3z"/>
		<path fill="#FFFFFF" d="M54.2,386.5c0.3,0.2,0.5,0.4,0.7,0.7c0.1,0.3,0.2,0.6,0.1,0.9l-7.4,20.4c-0.2,0.5-0.6,0.8-1.2,0.8h-1.5
			c-0.6,0-1-0.3-1.2-0.8l-7.4-20.4c-0.1-0.3-0.1-0.7,0.1-0.9s0.4-0.5,0.7-0.7c0.3-0.1,0.6,0,0.9,0.1c0.3,0.1,0.5,0.4,0.5,0.7l7,19.5
			l7.1-19.5c0.1-0.3,0.3-0.6,0.6-0.7C53.6,386.5,53.9,386.4,54.2,386.5z"/>
		<path fill="#FFFFFF" d="M65.4,386.5c2.5,0,4.6,0.9,6.3,2.6c0.8,0.8,1.5,1.8,1.9,2.9c0.4,1.1,0.7,2.2,0.7,3.4v2.3
			c0,0.3-0.1,0.6-0.3,0.9s-0.5,0.3-0.9,0.3H58.8v1.5c0,0.9,0.2,1.8,0.5,2.6s0.8,1.5,1.4,2.1c0.6,0.6,1.3,1.1,2.1,1.4
			c0.8,0.3,1.7,0.5,2.6,0.5h5.1c0.3,0,0.6,0.1,0.8,0.3s0.3,0.5,0.3,0.8s-0.1,0.6-0.3,0.8s-0.5,0.3-0.8,0.3h-5.1
			c-1.2,0-2.4-0.2-3.5-0.7c-1.1-0.5-2-1.1-2.9-1.9c-0.8-0.8-1.5-1.8-1.9-2.8c-0.5-1.1-0.7-2.2-0.7-3.5v-5c0-1.2,0.2-2.3,0.7-3.4
			c0.4-1.1,1.1-2,2-2.9c0.8-0.9,1.8-1.5,2.9-2C63.1,386.7,64.2,386.5,65.4,386.5z M71.9,395.3c0-0.8-0.2-1.7-0.5-2.5
			c-0.3-0.8-0.8-1.5-1.4-2.1c-1.2-1.3-2.8-2-4.6-2c-0.9,0-1.7,0.2-2.5,0.5c-0.8,0.3-1.5,0.8-2.1,1.4c-0.6,0.6-1.1,1.3-1.4,2.1
			c-0.3,0.8-0.5,1.6-0.5,2.5v1.1h13.1V395.3z"/>
		<path fill="#FFFFFF" d="M90.6,387c0.9,0.4,1.7,0.9,2.3,1.6c0.7,0.7,1.2,1.4,1.6,2.3c0.4,0.9,0.6,1.9,0.6,2.9v14.3
			c0,0.3-0.1,0.6-0.4,0.8c-0.2,0.2-0.5,0.3-0.8,0.3c-0.4,0-0.7-0.1-0.9-0.3s-0.3-0.5-0.3-0.8v-14.3c0-0.7-0.1-1.3-0.4-1.9
			c-0.3-0.6-0.6-1.1-1.1-1.6s-1-0.8-1.6-1.1c-0.6-0.3-1.2-0.4-1.9-0.4h-3.1c-0.7,0-1.3,0.1-1.9,0.4c-0.6,0.3-1.1,0.6-1.6,1
			c-0.5,0.4-0.8,1-1.1,1.6c-0.3,0.6-0.4,1.2-0.4,1.9v14.5c0,0.3-0.1,0.6-0.3,0.8s-0.5,0.3-0.9,0.3s-0.6-0.1-0.9-0.3
			s-0.3-0.5-0.3-0.8v-20.5c0-0.3,0.1-0.6,0.3-0.8c0.2-0.2,0.5-0.3,0.9-0.3s0.6,0.1,0.9,0.3c0.2,0.2,0.3,0.5,0.3,0.8v0.8
			c1.4-1.3,3-2,5-2h3.1C88.8,386.5,89.7,386.6,90.6,387z"/>
	</g>
</g>
</svg>
